<svg width="192" height="192" viewBox="0 0 192 192" fill="none" xmlns="http://www.w3.org/2000/svg">
    <defs>
        <linearGradient id="gradient" x1="0%" y1="0%" x2="100%" y2="100%">
            <stop offset="0%" style="stop-color:#667eea;stop-opacity:1" />
            <stop offset="100%" style="stop-color:#764ba2;stop-opacity:1" />
        </linearGradient>
    </defs>
    
    <!-- Background Circle -->
    <circle cx="96" cy="96" r="88" fill="url(#gradient)" stroke="#ffffff" stroke-width="4"/>
    
    <!-- Book Icon -->
    <g transform="translate(96, 96)">
        <!-- Book Base -->
        <rect x="-32" y="-24" width="64" height="48" rx="4" fill="#ffffff" opacity="0.9"/>
        
        <!-- Book Pages -->
        <rect x="-28" y="-20" width="56" height="40" rx="2" fill="#f8fafc"/>
        <rect x="-24" y="-16" width="48" height="32" rx="1" fill="#ffffff"/>
        
        <!-- Book Spine -->
        <rect x="-32" y="-24" width="8" height="48" rx="4" fill="#e2e8f0"/>
        
        <!-- Page Lines -->
        <line x1="-20" y1="-8" x2="16" y2="-8" stroke="#cbd5e1" stroke-width="1"/>
        <line x1="-20" y1="-2" x2="16" y2="-2" stroke="#cbd5e1" stroke-width="1"/>
        <line x1="-20" y1="4" x2="16" y2="4" stroke="#cbd5e1" stroke-width="1"/>
        <line x1="-20" y1="10" x2="12" y2="10" stroke="#cbd5e1" stroke-width="1"/>
        
        <!-- Graduation Cap -->
        <g transform="translate(0, -40)">
            <!-- Cap Top -->
            <polygon points="-20,-8 20,-8 16,-4 -16,-4" fill="#1e40af"/>
            <rect x="-16" y="-4" width="32" height="4" fill="#3b82f6"/>
            
            <!-- Tassel -->
            <line x1="16" y1="-6" x2="24" y2="2" stroke="#fbbf24" stroke-width="2"/>
            <circle cx="24" cy="2" r="2" fill="#fbbf24"/>
        </g>
        
        <!-- Knowledge Symbol (Lightbulb) -->
        <g transform="translate(24, 24)" opacity="0.8">
            <circle cx="0" cy="-4" r="6" fill="#fbbf24"/>
            <rect x="-3" y="2" width="6" height="4" rx="1" fill="#f59e0b"/>
            <line x1="-2" y1="6" x2="2" y2="6" stroke="#d97706" stroke-width="1"/>
        </g>
    </g>
    
    <!-- Progress Indicator -->
    <circle cx="96" cy="96" r="88" fill="none" stroke="#ffffff" stroke-width="3" stroke-dasharray="20 10" opacity="0.3"/>
</svg>
